<?xml version="1.0" standalone="no"?>
<!DOCTYPE svg PUBLIC "-//W3C//DTD SVG 20010904//EN"
 "http://www.w3.org/TR/2001/REC-SVG-20010904/DTD/svg10.dtd">
<svg version="1.0" xmlns="http://www.w3.org/2000/svg"
 width="500.000000pt" height="500.000000pt" viewBox="0 0 500.000000 500.000000"
 preserveAspectRatio="xMidYMid meet">

<g transform="translate(0.000000,500.000000) scale(0.100000,-0.100000)"
fill="#000000" stroke="none">
<path d="M2540 2841 l0 -98 -38 10 c-56 15 -110 1 -149 -38 l-34 -34 -15 24
c-35 54 -129 70 -194 34 -49 -28 -70 -66 -70 -129 0 -45 4 -56 33 -85 40 -40
90 -55 147 -45 41 8 90 36 97 57 6 18 -52 36 -75 24 -46 -25 -112 -4 -112 35
0 11 18 14 85 14 l84 0 19 -43 c22 -49 72 -86 118 -87 16 0 66 0 112 0 l82 1
0 84 c0 94 16 125 65 125 35 0 45 -27 45 -124 l0 -86 45 0 45 0 0 106 c0 58
-5 114 -11 126 -22 41 -117 62 -155 33 -10 -8 -22 -15 -26 -15 -5 0 -8 47 -8
105 l0 105 -45 0 -45 0 0 -99z m-1 -228 c0 -72 -3 -93 -10 -78 -8 16 -18 20
-48 17 -32 -3 -42 1 -60 24 -41 52 1 121 66 109 25 -4 35 -2 39 10 12 29 14
14 13 -82z m-311 75 c25 -25 13 -38 -36 -38 -56 0 -65 5 -51 31 11 22 68 26
87 7z"/>
<path d="M3550 2804 l0 -136 -27 33 c-33 39 -79 59 -133 59 -49 0 -114 -31
-136 -65 -16 -25 -17 -25 -36 -8 -11 10 -50 34 -87 53 -54 29 -67 40 -69 62
-3 23 2 28 25 34 17 5 44 1 71 -8 l43 -16 20 39 20 40 -35 14 c-88 37 -160 28
-212 -26 -24 -25 -29 -39 -29 -79 0 -59 23 -87 112 -134 51 -27 58 -35 58 -61
0 -24 -5 -31 -32 -39 -27 -7 -42 -4 -84 16 l-51 26 -19 -32 c-27 -45 -24 -55
26 -77 87 -39 210 -23 249 32 l15 22 30 -31 c50 -49 151 -60 219 -23 13 7 32
27 42 44 l20 32 0 -47 0 -48 45 0 45 0 0 230 0 230 -45 0 -45 0 0 -136z m-106
-146 c22 -31 20 -58 -6 -85 -25 -27 -54 -29 -86 -7 -27 18 -30 69 -5 96 23 26
78 24 97 -4z"/>
<path d="M50 2899 c0 -25 -28 -339 -34 -386 l-5 -33 49 0 48 0 6 73 c4 39 9
99 13 132 6 59 6 60 19 30 7 -16 27 -74 46 -127 32 -96 34 -98 64 -98 31 0 31
1 74 127 50 146 53 145 65 -30 l7 -107 50 0 c48 0 50 1 46 25 l-5 24 29 -24
c39 -33 111 -37 155 -8 21 14 23 14 23 -1 0 -12 10 -16 45 -16 l45 0 0 135 0
135 -45 0 c-25 0 -45 -5 -45 -10 0 -6 -14 -3 -32 6 -50 26 -115 14 -154 -29
l-32 -35 -6 52 c-3 28 -8 81 -12 119 l-6 67 -52 0 -51 0 -44 -118 c-24 -64
-47 -121 -51 -125 -4 -4 -29 48 -55 117 l-48 126 -53 0 c-48 0 -54 -2 -54 -21z
m632 -236 c40 -36 8 -113 -47 -113 -54 0 -85 71 -48 112 20 22 70 23 95 1z"/>
<path d="M1496 2904 c-32 -32 -11 -84 34 -84 29 0 60 22 60 43 0 46 -63 73
-94 41z"/>
<path d="M1760 2880 l0 -40 50 0 50 0 0 -180 0 -180 50 0 50 0 0 180 0 180 55
0 55 0 0 40 0 40 -155 0 -155 0 0 -40z"/>
<path d="M4136 2904 c-32 -32 -11 -84 34 -84 29 0 60 22 60 43 0 46 -63 73
-94 41z"/>
<path d="M1340 2800 l0 -50 -60 0 -60 0 0 -81 c0 -99 -9 -119 -55 -119 -46 0
-55 20 -55 118 l0 79 -71 7 c-60 6 -75 5 -105 -13 -27 -16 -34 -17 -34 -6 0
11 -12 15 -45 15 l-45 0 0 -135 0 -135 45 0 45 0 0 83 c0 101 13 119 79 116
l41 -3 0 -51 c0 -111 36 -147 145 -147 66 0 117 19 131 49 4 10 10 49 13 87 8
95 31 103 31 12 0 -87 19 -133 59 -143 17 -4 64 -7 106 -5 l75 4 0 133 0 134
-72 3 -73 3 -3 48 -3 47 -45 0 -44 0 0 -50z m148 -182 c3 -65 2 -66 -20 -61
-31 8 -38 21 -38 74 0 52 6 61 35 57 17 -3 20 -11 23 -70z"/>
<path d="M3980 2800 l0 -50 -60 0 -60 0 0 -81 c0 -99 -9 -119 -55 -119 -46 0
-55 20 -55 119 l0 81 -45 0 -45 0 0 -89 c0 -108 12 -146 53 -168 40 -20 143
-21 184 0 39 20 45 36 52 120 3 37 11 68 16 70 6 1 12 -33 15 -81 8 -119 17
-125 168 -123 l72 1 0 48 0 47 20 -32 c27 -44 71 -65 141 -65 66 0 120 26 144
70 14 27 14 27 15 -20 l0 -48 45 0 45 0 0 85 c0 94 16 125 65 125 35 0 45 -27
45 -124 l0 -86 45 0 45 0 0 106 c0 58 -5 114 -11 126 -23 43 -115 61 -159 31
-17 -12 -25 -13 -28 -5 -2 7 -23 12 -48 12 l-44 0 0 -46 0 -47 -23 34 c-65 98
-244 88 -287 -16 -7 -15 -9 -7 -9 28 l-1 47 -75 0 -75 0 0 50 0 50 -45 0 -45
0 0 -50z m148 -190 c1 -41 -1 -70 -5 -64 -5 7 -17 13 -28 15 -16 3 -21 13 -23
53 -4 62 2 78 30 74 21 -3 23 -9 26 -78z m288 62 c13 -9 34 -46 34 -62 0 -20
-49 -60 -74 -60 -55 0 -83 84 -39 118 18 13 62 16 79 4z"/>
<path d="M1600 2635 l0 -35 85 0 85 0 0 35 0 35 -85 0 -85 0 0 -35z"/>
<path d="M4868 2579 c-22 -13 -24 -72 -3 -89 8 -7 26 -12 40 -12 34 0 55 19
55 53 0 49 -48 74 -92 48z"/>
<path d="M1293 2300 c0 -60 1 -73 6 -45 9 51 17 65 42 65 16 0 19 -7 19 -50 0
-27 5 -50 10 -50 6 0 10 22 10 49 0 59 -18 80 -55 63 -22 -10 -24 -9 -28 21
-2 18 -4 -6 -4 -53z"/>
<path d="M3022 2303 c-2 -79 -1 -83 20 -83 20 0 20 1 5 13 -12 9 -17 31 -20
82 l-3 70 -2 -82z"/>
<path d="M3080 2370 c0 -5 5 -10 10 -10 6 0 10 5 10 10 0 6 -4 10 -10 10 -5 0
-10 -4 -10 -10z"/>
<path d="M4252 2303 c-2 -79 -1 -83 20 -83 20 0 20 1 5 13 -12 9 -17 31 -20
82 l-3 70 -2 -82z"/>
<path d="M680 2295 c0 -43 4 -75 10 -75 6 0 10 32 10 75 0 43 -4 75 -10 75 -6
0 -10 -32 -10 -75z"/>
<path d="M930 2361 c23 -6 25 -13 30 -76 l6 -70 4 70 c5 64 7 70 30 76 17 5 5
7 -35 7 -40 0 -51 -2 -35 -7z"/>
<path d="M1463 2355 c4 -8 12 -41 19 -75 7 -34 17 -60 24 -60 7 0 20 26 30 58
l17 57 15 -57 c9 -32 21 -58 28 -58 7 0 19 30 28 69 19 81 19 81 8 81 -4 0
-14 -28 -21 -62 l-14 -63 -19 63 c-10 34 -22 62 -27 62 -4 0 -16 -28 -26 -62
l-18 -63 -14 63 c-8 34 -19 62 -25 62 -5 0 -8 -7 -5 -15z"/>
<path d="M1853 2363 c26 -4 27 -6 27 -74 0 -39 4 -69 10 -69 6 0 10 30 10 69
0 64 2 70 23 74 12 2 -5 4 -38 4 -33 0 -48 -2 -32 -4z"/>
<path d="M2363 2295 c0 -44 2 -61 4 -37 2 23 2 59 0 80 -2 20 -4 1 -4 -43z"/>
<path d="M2617 2352 c-10 -11 -17 -35 -17 -59 0 -36 5 -45 38 -70 44 -35 69
-46 77 -33 4 6 -3 10 -14 10 -11 0 -23 5 -26 10 -3 6 -1 10 4 10 6 0 20 9 31
20 24 24 26 77 4 108 -19 28 -74 30 -97 4z m77 -8 c16 -16 21 -70 8 -90 -12
-20 -47 -25 -67 -10 -26 19 -26 83 0 102 24 18 40 18 59 -2z"/>
<path d="M3390 2358 c0 -7 4 -29 9 -48 5 -19 12 -47 15 -62 7 -31 36 -38 37
-10 0 9 6 35 13 57 l12 40 18 -58 c10 -35 22 -57 29 -54 13 4 49 147 36 147
-9 0 -15 -18 -25 -72 -3 -21 -10 -38 -14 -38 -4 0 -12 25 -19 55 -7 30 -17 55
-22 55 -11 0 -11 -2 -32 -75 l-14 -50 -13 58 c-12 53 -30 86 -30 55z"/>
<path d="M3770 2295 l0 -75 53 1 c51 2 51 2 12 8 -34 5 -40 10 -43 34 -3 25
-1 27 32 27 20 0 36 5 36 10 0 6 -16 10 -35 10 -30 0 -35 3 -35 24 0 22 5 25
43 29 40 3 40 4 -10 5 l-53 2 0 -75z"/>
<path d="M3140 2346 c0 -8 -6 -17 -12 -19 -10 -4 -10 -6 0 -6 7 -1 12 -15 12
-35 0 -19 3 -41 6 -50 6 -17 54 -23 54 -7 0 5 -8 8 -17 7 -14 -1 -19 8 -21 41
-3 37 0 42 20 46 l23 4 -22 2 c-13 0 -23 8 -23 16 0 8 -4 15 -10 15 -5 0 -10
-6 -10 -14z"/>
<path d="M770 2331 c-8 -6 -18 -7 -22 -5 -4 3 -7 -21 -7 -53 1 -54 2 -55 8
-18 9 51 17 65 42 65 16 0 19 -7 19 -50 0 -27 5 -50 10 -50 6 0 10 22 10 48 0
63 -22 86 -60 63z"/>
<path d="M1060 2320 c-37 -37 -19 -100 29 -100 16 0 34 7 41 15 15 18 7 19
-19 3 -15 -9 -23 -9 -35 1 -26 22 -19 31 24 31 33 0 40 3 40 19 0 23 -25 51
-46 51 -8 0 -23 -9 -34 -20z m58 -17 c2 -9 -7 -13 -27 -13 -30 0 -39 9 -24 24
11 10 46 3 51 -11z"/>
<path d="M1180 2320 c-24 -24 -25 -48 -4 -78 17 -25 56 -29 74 -7 15 18 7 19
-19 3 -25 -15 -51 4 -51 37 0 31 24 49 57 41 27 -6 27 -6 9 9 -26 20 -42 19
-66 -5z"/>
<path d="M1680 2320 c-24 -24 -25 -48 -4 -78 17 -25 56 -29 74 -7 15 18 7 19
-19 3 -15 -9 -23 -9 -35 1 -26 22 -19 31 24 31 36 0 40 3 40 25 0 23 -24 45
-49 45 -6 0 -20 -9 -31 -20z m60 -15 c0 -10 -10 -15 -30 -15 -22 0 -28 4 -24
15 4 8 17 15 30 15 15 0 24 -6 24 -15z"/>
<path d="M1993 2333 c-21 -4 -23 -10 -23 -59 0 -30 5 -54 10 -54 6 0 10 21 10
46 0 37 4 47 20 51 18 5 30 25 13 22 -5 -1 -18 -4 -30 -6z"/>
<path d="M2198 2329 c-28 -16 -21 -39 17 -55 19 -8 35 -19 35 -24 0 -17 -27
-22 -50 -10 -18 10 -21 9 -18 -2 3 -7 19 -13 39 -13 29 0 34 4 37 27 3 22 -2
27 -27 33 -42 9 -43 39 -1 33 32 -5 41 6 14 16 -21 8 -26 7 -46 -5z"/>
<path d="M2450 2331 c-8 -6 -18 -7 -22 -5 -4 3 -7 -21 -6 -53 1 -47 2 -50 5
-18 5 46 18 65 44 65 16 0 19 -8 19 -50 0 -27 5 -50 10 -50 6 0 10 22 10 50 0
38 -4 52 -19 60 -23 12 -22 12 -41 1z"/>
<path d="M2904 2325 c-17 -13 -16 -14 19 -8 48 7 49 -12 1 -32 -28 -11 -35
-19 -32 -37 3 -20 9 -23 48 -24 l46 -1 -6 50 c-9 64 -35 83 -76 52z m56 -59
c0 -18 -27 -39 -40 -31 -16 10 -12 33 8 38 29 8 32 7 32 -7z"/>
<path d="M3612 2324 c-26 -18 -30 -75 -8 -93 19 -16 68 -10 74 7 3 11 0 12
-16 3 -24 -13 -52 -5 -52 14 0 9 14 15 37 17 44 4 52 19 24 47 -25 25 -30 26
-59 5z m56 -21 c2 -9 -7 -13 -27 -13 -30 0 -39 9 -24 24 11 10 46 3 51 -11z"/>
<path d="M4020 2320 c-38 -38 -16 -100 34 -100 13 0 29 7 36 15 15 18 7 19
-19 3 -28 -17 -53 6 -49 46 3 29 5 31 42 30 36 -2 38 0 21 12 -26 19 -41 18
-65 -6z"/>
<path d="M4142 2324 c-26 -18 -30 -75 -8 -93 19 -16 68 -10 74 7 3 11 0 12
-16 3 -24 -13 -52 -5 -52 14 0 9 14 15 37 17 44 4 52 19 24 47 -25 25 -30 26
-59 5z m56 -21 c2 -9 -7 -13 -27 -13 -30 0 -39 9 -24 24 11 10 46 3 51 -11z"/>
<path d="M2062 2278 l3 -53 43 -1 42 -2 0 54 c0 30 -4 54 -10 54 -5 0 -10 -20
-10 -44 0 -31 -5 -46 -16 -50 -26 -10 -34 2 -34 50 0 24 -5 44 -11 44 -6 0 -9
-21 -7 -52z"/>
<path d="M2774 2280 l1 -55 43 -1 42 -2 0 54 c0 30 -4 54 -10 54 -5 0 -10 -17
-10 -39 0 -79 -55 -77 -63 2 -3 31 -4 27 -3 -13z"/>
<path d="M3080 2275 c0 -30 5 -55 10 -55 6 0 10 25 10 55 0 30 -4 55 -10 55
-5 0 -10 -25 -10 -55z"/>
<path d="M3235 2273 c25 -62 23 -83 -6 -83 -10 0 -19 -5 -19 -11 0 -6 10 -9
22 -7 17 2 30 20 55 81 18 42 28 77 24 77 -5 0 -17 -19 -26 -42 l-18 -43 -19
43 c-28 63 -40 51 -13 -15z"/>
<path d="M3906 2305 c15 -23 15 -27 0 -50 -18 -27 -20 -35 -8 -35 5 0 14 12
21 27 l13 28 14 -28 c8 -15 19 -27 25 -27 5 0 3 14 -6 30 -12 22 -13 35 -5 49
16 31 11 38 -10 13 -19 -23 -19 -23 -30 -2 -6 11 -15 20 -21 20 -5 0 -2 -11 7
-25z"/>
<path d="M2294 2224 c4 -9 1 -23 -5 -30 -9 -11 -9 -14 0 -14 13 0 31 40 24 53
-8 14 -25 7 -19 -9z"/>
<path d="M4310 2230 c0 -5 5 -10 10 -10 6 0 10 5 10 10 0 6 -4 10 -10 10 -5 0
-10 -4 -10 -10z"/>
</g>
</svg>
